<?xml version="1.0" encoding="UTF-8" standalone="no"?>
<!-- Created with Inkscape (http://www.inkscape.org/) -->

<svg
   xmlns:dc="http://purl.org/dc/elements/1.1/"
   xmlns:cc="http://creativecommons.org/ns#"
   xmlns:rdf="http://www.w3.org/1999/02/22-rdf-syntax-ns#"
   xmlns:svg="http://www.w3.org/2000/svg"
   xmlns="http://www.w3.org/2000/svg"
   xmlns:sodipodi="http://sodipodi.sourceforge.net/DTD/sodipodi-0.dtd"
   xmlns:inkscape="http://www.inkscape.org/namespaces/inkscape"
   width="840"
   height="200"
   viewBox="0 0 222.25 52.916668"
   version="1.1"
   id="svg2240"
   inkscape:version="0.92+devel (unknown)"
   sodipodi:docname="logo3.svg">
  <defs
     id="defs2234" />
  <sodipodi:namedview
     id="base"
     pagecolor="#ffffff"
     bordercolor="#666666"
     borderopacity="1.0"
     inkscape:pageopacity="0.0"
     inkscape:pageshadow="2"
     inkscape:zoom="1.4"
     inkscape:cx="418.55369"
     inkscape:cy="54.043188"
     inkscape:document-units="mm"
     inkscape:current-layer="layer1"
     inkscape:document-rotation="0"
     showgrid="false"
     units="px"
     inkscape:window-width="1920"
     inkscape:window-height="1153"
     inkscape:window-x="1200"
     inkscape:window-y="743"
     inkscape:window-maximized="1" />
  <metadata
     id="metadata2237">
    <rdf:RDF>
      <cc:Work
         rdf:about="">
        <dc:format>image/svg+xml</dc:format>
        <dc:type
           rdf:resource="http://purl.org/dc/dcmitype/StillImage" />
        <dc:title></dc:title>
      </cc:Work>
    </rdf:RDF>
  </metadata>
  <g
     inkscape:label="Layer 1"
     inkscape:groupmode="layer"
     id="layer1"
     transform="translate(0,-244.08332)">
    <g
       transform="matrix(0.25276918,0,0,-0.25276918,-48.526082,438.60029)"
       id="g2232">
      <path
         d="m 310.2734,731.397 v 0 -5.712 h 5.713 v 5.712 5.718 h -5.713 v 5.711 5.717 h -5.717 v -5.717 h -5.708 -5.718 v -5.711 h 5.718 5.708 5.717 z"
         style="opacity:1;fill:#1d1e1c;fill-opacity:1;fill-rule:nonzero;stroke:none"
         id="path176"
         inkscape:connector-curvature="0" />
      <path
         d="m 275.9927,719.9722 v 5.713 h -11.434 v 5.712 h -5.714 v -11.425 z"
         style="opacity:1;fill:#1d1e1c;fill-opacity:1;fill-rule:nonzero;stroke:none"
         id="path180"
         inkscape:connector-curvature="0" />
      <path
         d="m 293.1304,719.9722 v -17.143 h 5.718 v -17.143 h -5.718 v -11.428 h 5.718 v -5.72 h 5.708 v 34.291 5.712 h -5.708 v 5.716 h 5.708 v 5.715 h -5.708 z"
         style="opacity:1;fill:#1d1e1c;fill-opacity:1;fill-rule:nonzero;stroke:none"
         id="path184"
         inkscape:connector-curvature="0" />
      <path
         d="m 333.1328,714.2573 v -11.428 h 5.715 v 5.712 l 5.717,10e-4 v 11.43 h -5.717 v -5.715 h -5.715 v 5.715 h -11.432 v -5.715 z"
         style="opacity:1;fill:#1d1e1c;fill-opacity:1;fill-rule:nonzero;stroke:none"
         id="path188"
         inkscape:connector-curvature="0" />
      <path
         inkscape:connector-curvature="0"
         id="path190"
         style="opacity:1;fill:#1d1e1c;fill-opacity:1;fill-rule:nonzero;stroke:none"
         d="m 213.131,708.542 h 11.428 v -5.712 h -11.428 z" />
      <path
         d="m 247.4146,697.1147 h 5.716 v 11.427 h -5.716 v 5.716 h -5.711 v -11.428 h 5.711 z"
         style="opacity:1;fill:#1d1e1c;fill-opacity:1;fill-rule:nonzero;stroke:none"
         id="path194"
         inkscape:connector-curvature="0" />
      <path
         d="m 298.9155,593.8823 v 5.715 h 11.426 v -5.715 h 5.719 v -5.711 h -11.428 v 5.711 z"
         style="opacity:1;fill:#1d1e1c;fill-opacity:1;fill-rule:nonzero;stroke:none"
         id="path198"
         inkscape:connector-curvature="0" />
      <path
         d="m 315.9863,691.4009 h -5.713 v -5.715 h 11.428 v 11.429 h 5.715 v 5.715 h -5.715 -5.715 z"
         style="opacity:1;fill:#1d1e1c;fill-opacity:1;fill-rule:nonzero;stroke:none"
         id="path202"
         inkscape:connector-curvature="0" />
      <path
         d="m 373.1367,697.1147 v 5.715 5.713 h -5.719 v -5.713 h -5.709 v -5.715 h 5.709 z"
         style="opacity:1;fill:#1d1e1c;fill-opacity:1;fill-rule:nonzero;stroke:none"
         id="path206"
         inkscape:connector-curvature="0" />
      <path
         d="m 258.52,599.5972 v -5.715 -5.711 h 5.715 v 5.711 h 5.717 v 5.715 h -5.717 z"
         style="opacity:1;fill:#1d1e1c;fill-opacity:1;fill-rule:nonzero;stroke:none"
         id="path210"
         inkscape:connector-curvature="0" />
      <path
         inkscape:connector-curvature="0"
         id="path212"
         style="opacity:1;fill:#1d1e1c;fill-opacity:1;fill-rule:nonzero;stroke:none"
         d="m 207.415,691.401 h 5.717 v -11.429 h -5.717 z" />
      <path
         d="m 373.1367,691.4009 v -5.715 h 5.713 v -5.716 h 5.713 v 11.431 z"
         style="opacity:1;fill:#1d1e1c;fill-opacity:1;fill-rule:nonzero;stroke:none"
         id="path216"
         inkscape:connector-curvature="0" />
      <path
         d="m 338.8477,685.686 v -5.716 h -5.715 v -5.712 h -5.717 v -5.715 -0.004 -5.708 h 5.717 v 5.708 h 5.715 v 5.719 h 5.717 v 5.712 h 11.428 v 17.145 h -5.713 v -11.429 z"
         style="opacity:1;fill:#1d1e1c;fill-opacity:1;fill-rule:nonzero;stroke:none"
         id="path220"
         inkscape:connector-curvature="0" />
      <path
         inkscape:connector-curvature="0"
         id="path222"
         style="opacity:1;fill:#1d1e1c;fill-opacity:1;fill-rule:nonzero;stroke:none"
         d="m 224.559,674.257 h 5.717 v -5.716 h -5.717 z" />
      <path
         d="m 310.2734,674.2583 v -5.715 -0.005 -5.708 h 5.713 v 5.708 h 5.715 v 5.72 h -5.715 z"
         style="opacity:1;fill:#1d1e1c;fill-opacity:1;fill-rule:nonzero;stroke:none"
         id="path226"
         inkscape:connector-curvature="0" />
      <path
         d="m 281.7036,634.2544 v -5.708 h -5.711 v -5.717 h -5.718 v 5.714 0.003 5.708 h 5.718 z m 0,-17.14 h -5.711 v 5.713 h 5.711 z m 5.716,57.144 h -5.716 v 5.714 h 5.716 v 5.714 h -17.145 v 5.714 h -5.716 v 5.714 h -5.714 v -5.714 h -22.854 v -5.714 h -5.715 v -5.714 h 11.428 v 5.714 h 22.855 v -5.714 h 11.434 v -11.434 h 5.711 v -5.708 h -5.711 v -5.713 h -5.718 v 5.713 5.713 h -5.716 v 5.715 h -17.144 v -5.715 h -5.711 v -5.713 h -22.857 v -11.427 h 11.429 v 5.714 h 11.428 v 5.713 h 5.711 v 5.711 l 11.43,-0.003 v -5.708 h 5.714 v -34.284 h -5.714 v -17.146 h -5.714 v -5.713 h 5.714 5.714 v 17.14 h 5.716 v -5.713 h 5.718 v -5.714 h -5.718 v -5.713 h 11.429 v 5.71 h 5.716 v 22.861 h -5.716 v 5.718 h -5.711 v 5.711 11.43 h 5.711 v -5.714 h 11.427 v 11.427 h -5.711 z"
         style="opacity:1;fill:#1d1e1c;fill-opacity:1;fill-rule:nonzero;stroke:none"
         id="path230"
         inkscape:connector-curvature="0" />
      <path
         d="m 350.2793,651.4058 v 5.712 h -22.863 v -5.714 l 22.863,0.002 v -5.719 h 5.713 v -5.711 h 11.426 v 5.711 h 5.718 v 5.719 z"
         style="opacity:1;fill:#1d1e1c;fill-opacity:1;fill-rule:nonzero;stroke:none"
         id="path234"
         inkscape:connector-curvature="0" />
      <path
         d="m 333.1328,611.3999 v 11.43 h -5.717 v 17.146 h -5.715 v 17.142 h -5.714 v -5.714 h -5.713 v -5.717 h 5.713 v -11.433 h 5.714 v -5.708 h -5.714 v -5.718 h 5.714 v -22.856 h 5.715 v 5.715 h 22.863 v 5.713 z"
         style="opacity:1;fill:#1d1e1c;fill-opacity:1;fill-rule:nonzero;stroke:none"
         id="path238"
         inkscape:connector-curvature="0" />
      <path
         inkscape:connector-curvature="0"
         id="path240"
         style="opacity:1;fill:#1d1e1c;fill-opacity:1;fill-rule:nonzero;stroke:none"
         d="m 206.84,611.397 h 11.429 v -5.71 H 206.84 Z" />
      <path
         inkscape:connector-curvature="0"
         id="path242"
         style="opacity:1;fill:#1d1e1c;fill-opacity:1;fill-rule:nonzero;stroke:none"
         d="m 230.127,611.397 h 17.543 v -5.71 h -17.543 z" />
      <path
         inkscape:connector-curvature="0"
         id="path244"
         style="opacity:1;fill:#1d1e1c;fill-opacity:1;fill-rule:nonzero;stroke:none"
         d="m 355.98,599.436 h 11.428 v -5.712 H 355.98 Z" />
      <path
         inkscape:connector-curvature="0"
         id="path246"
         style="opacity:1;fill:#1d1e1c;fill-opacity:1;fill-rule:nonzero;stroke:none"
         d="m 356.111,611.173 h 5.711 v -5.719 h -5.711 z" />
      <path
         inkscape:connector-curvature="0"
         id="path248"
         style="opacity:1;fill:#1d1e1c;fill-opacity:1;fill-rule:nonzero;stroke:none"
         d="m 382.855,605.169 h 5.713 v -5.717 h -5.713 z" />
    </g>
    <g
       style="opacity:1"
       id="g478"
       transform="matrix(0.67883918,0,0,-0.67883918,63.398685,282.34893)">
      <path
         d="M 0,0 -1.705,-4.844 -3.52,0 h -2.811 l 3.473,-8.302 H -0.61 L 2.646,0 Z"
         style="fill:#1d1e1c;fill-opacity:1;fill-rule:nonzero;stroke:none"
         id="path480"
         inkscape:connector-curvature="0" />
    </g>
    <g
       style="opacity:1"
       id="g482"
       transform="matrix(0.67883918,0,0,-0.67883918,65.708975,280.92031)">
      <path
         d="m 0,0 c 0,0.836 0.675,1.522 1.504,1.522 0.845,0 1.534,-0.649 1.534,-1.485 0,-0.861 -0.689,-1.544 -1.55,-1.544 C 0.663,-1.507 0,-0.841 0,0 M 2.75,-10.406 H 0.244 v 8.302 H 2.75 Z"
         style="fill:#1d1e1c;fill-opacity:1;fill-rule:nonzero;stroke:none"
         id="path484"
         inkscape:connector-curvature="0" />
    </g>
    <path
       d="m 68.77156,287.98417 h 1.714069 v -7.0287 H 68.77156 Z"
       style="opacity:1;fill:#1d1e1c;fill-opacity:1;fill-rule:nonzero;stroke:none;stroke-width:0.67883915"
       id="path486"
       inkscape:connector-curvature="0" />
    <path
       d="m 71.670203,287.98417 h 1.705924 v -7.0287 h -1.705924 z"
       style="opacity:1;fill:#1d1e1c;fill-opacity:1;fill-rule:nonzero;stroke:none;stroke-width:0.67883915"
       id="path488"
       inkscape:connector-curvature="0" />
    <g
       style="opacity:1"
       id="g490"
       transform="matrix(0.67883918,0,0,-0.67883918,74.293914,285.1955)">
      <path
         d="m 0,0 c 0,2.313 1.717,4.36 4.033,4.36 1.013,0 1.648,-0.338 2.393,-1.024 v 0.857 h 2.485 v -8.301 h -2.53 v 0.821 c 0,0 -0.902,-1.028 -2.489,-1.028 C 1.586,-4.315 0,-2.652 0,0 m 4.53,2.021 c -1.209,0 -1.971,-0.877 -1.971,-1.975 0,-1.143 0.729,-2.102 1.894,-2.102 1.111,0 2.048,0.841 2.048,2.038 0,1.215 -0.862,2.039 -1.971,2.039"
         style="fill:#1d1e1c;fill-opacity:1;fill-rule:nonzero;stroke:none"
         id="path492"
         inkscape:connector-curvature="0" />
    </g>
    <g
       style="opacity:1"
       id="g494"
       transform="matrix(0.67883918,0,0,-0.67883918,84.283915,282.34893)">
      <path
         d="m 0,0 h 2.466 v -0.909 c 0.77,0.755 1.565,1.06 2.663,1.06 2.333,0 3.77,-1.966 3.77,-4.278 0,-2.257 -1.499,-4.382 -3.946,-4.382 -1.447,0 -2.445,0.957 -2.445,0.957 v -3.452 H 0 Z m 6.347,-4.158 c 0,1.162 -0.743,2.086 -1.929,2.086 -1.261,0 -2.052,-0.907 -2.052,-2.106 0,-1.201 0.895,-2.019 2.073,-2.019 1.136,0 1.908,0.973 1.908,2.039"
         style="fill:#1d1e1c;fill-opacity:1;fill-rule:nonzero;stroke:none"
         id="path496"
         inkscape:connector-curvature="0" />
    </g>
    <g
       style="opacity:1"
       id="g498"
       transform="matrix(0.67883918,0,0,-0.67883918,90.967227,285.1955)">
      <path
         d="M 0,0 C 0,2.503 1.976,4.36 4.537,4.36 7.053,4.36 9.01,2.55 9.01,0.046 9.01,-2.482 7.186,-4.384 4.486,-4.384 1.943,-4.384 0,-2.313 0,0 m 4.52,1.983 c -1.208,0 -2.009,-0.891 -2.009,-2.021 0,-1.111 0.854,-1.983 2,-1.983 1.245,0 1.999,0.806 1.999,2.104 0,1.061 -0.804,1.9 -1.99,1.9"
         style="fill:#1d1e1c;fill-opacity:1;fill-rule:nonzero;stroke:none"
         id="path500"
         inkscape:connector-curvature="0" />
    </g>
    <g
       style="opacity:1"
       id="g502"
       transform="matrix(0.67883918,0,0,-0.67883918,98.002239,282.34893)">
      <path
         d="m 0,0 h 2.511 v -4.759 c 0,-0.908 0.572,-1.438 1.422,-1.438 0.901,0 1.405,0.53 1.405,1.367 V 0 h 2.46 V -4.912 C 7.798,-7.224 6.3,-8.509 3.909,-8.509 1.521,-8.509 0,-7.122 0,-4.83 Z"
         style="fill:#1d1e1c;fill-opacity:1;fill-rule:nonzero;stroke:none"
         id="path504"
         inkscape:connector-curvature="0" />
    </g>
    <g
       style="opacity:1"
       id="g506"
       transform="matrix(0.67883918,0,0,-0.67883918,107.27892,283.89485)">
      <path
         d="m 0,0 c -0.977,0 -1.569,-0.599 -1.569,-2.193 v -3.831 h -2.543 v 8.301 h 2.445 V 0.975 c 0.211,0.598 0.981,1.469 1.979,1.469 H 0.879 V -0.153 C 0.879,-0.153 0.571,0 0,0"
         style="fill:#1d1e1c;fill-opacity:1;fill-rule:nonzero;stroke:none"
         id="path508"
         inkscape:connector-curvature="0" />
    </g>
    <path
       d="m 111.21395,287.98417 h 1.70524 v -7.0287 h -1.70524 z"
       style="opacity:1;fill:#1d1e1c;fill-opacity:1;fill-rule:nonzero;stroke:none;stroke-width:0.67883915"
       id="path510"
       inkscape:connector-curvature="0" />
    <g
       style="opacity:1"
       id="g512"
       transform="matrix(0.67883918,0,0,-0.67883918,113.99141,280.95539)">
      <path
         d="M 0,0 0.374,-4.964 H 1.948 L 2.365,0 Z"
         style="fill:#1d1e1c;fill-opacity:1;fill-rule:nonzero;stroke:none"
         id="path514"
         inkscape:connector-curvature="0" />
    </g>
    <g
       style="opacity:1"
       id="g516"
       transform="matrix(0.67883918,0,0,-0.67883918,116.38527,285.1955)">
      <path
         d="m 0,0 c 0,2.313 1.715,4.36 4.031,4.36 1.02,0 1.648,-0.338 2.391,-1.024 V 4.193 H 8.908 V -4.108 H 6.382 v 0.821 c 0,0 -0.905,-1.028 -2.49,-1.028 C 1.588,-4.315 0,-2.652 0,0 M 4.532,2.021 C 3.33,2.021 2.56,1.144 2.56,0.046 c 0,-1.143 0.728,-2.102 1.892,-2.102 1.124,0 2.053,0.841 2.053,2.038 0,1.215 -0.87,2.039 -1.973,2.039"
         style="fill:#1d1e1c;fill-opacity:1;fill-rule:nonzero;stroke:none"
         id="path518"
         inkscape:connector-curvature="0" />
    </g>
    <g
       style="opacity:1"
       id="g520"
       transform="matrix(0.67883918,0,0,-0.67883918,126.416,283.89485)">
      <path
         d="m 0,0 c -0.979,0 -1.572,-0.599 -1.572,-2.193 v -3.831 h -2.541 v 8.301 h 2.447 V 0.975 c 0.203,0.598 0.98,1.469 1.977,1.469 h 0.56 V -0.153 C 0.871,-0.153 0.566,0 0,0"
         style="fill:#1d1e1c;fill-opacity:1;fill-rule:nonzero;stroke:none"
         id="path522"
         inkscape:connector-curvature="0" />
    </g>
    <g
       style="opacity:1"
       id="g524"
       transform="matrix(0.67883918,0,0,-0.67883918,127.59603,280.95539)">
      <path
         d="M 0,0 V -2.053 H -0.829 V -4.349 H 0 v -6.005 h 2.528 v 5.987 h 1.344 v 2.314 H 2.528 V 0 Z"
         style="fill:#1d1e1c;fill-opacity:1;fill-rule:nonzero;stroke:none"
         id="path526"
         inkscape:connector-curvature="0" />
    </g>
    <g
       style="opacity:1"
       id="g528"
       transform="matrix(0.67883918,0,0,-0.67883918,133.34166,285.17168)">
      <path
         d="m 0,0 c 0,2.515 1.792,4.31 4.245,4.31 2.393,0 4.082,-1.576 4.082,-4.537 0,-0.204 0.009,-0.304 0,-0.496 H 2.489 c 0.215,-0.989 0.998,-1.455 1.945,-1.455 0.824,0 1.365,0.584 1.799,1.148 0,0 1.497,-0.87 1.959,-1.148 C 7.46,-3.474 6.056,-4.351 4.311,-4.351 1.761,-4.351 0,-2.795 0,0 M 4.215,2.204 C 3.364,2.204 2.891,1.811 2.585,1.041 H 5.733 C 5.433,1.828 5.001,2.204 4.215,2.204"
         style="fill:#1d1e1c;fill-opacity:1;fill-rule:nonzero;stroke:none"
         id="path530"
         inkscape:connector-curvature="0" />
    </g>
    <g
       style="opacity:1"
       id="g532"
       transform="matrix(0.67883918,0,0,-0.67883918,139.91194,280.95539)">
      <path
         d="M 0,0 V -2.053 H -0.822 V -4.349 H 0 v -6.005 h 2.524 v 5.987 h 1.331 v 2.314 H 2.524 V 0 Z"
         style="fill:#1d1e1c;fill-opacity:1;fill-rule:nonzero;stroke:none"
         id="path534"
         inkscape:connector-curvature="0" />
    </g>
    <path
       d="m 145.92774,287.98417 h 1.70321 v -7.0287 h -1.70321 z"
       style="opacity:1;fill:#1d1e1c;fill-opacity:1;fill-rule:nonzero;stroke:none;stroke-width:0.67883915"
       id="path536"
       inkscape:connector-curvature="0" />
    <g
       style="opacity:1"
       id="g538"
       transform="matrix(0.67883918,0,0,-0.67883918,148.5499,285.17168)">
      <path
         d="m 0,0 c 0,2.515 1.798,4.31 4.244,4.31 2.399,0 4.086,-1.576 4.086,-4.537 0,-0.204 0.018,-0.304 0,-0.496 H 2.488 c 0.215,-0.989 1.003,-1.455 1.947,-1.455 0.822,0 1.369,0.584 1.795,1.148 0,0 1.511,-0.872 1.97,-1.148 C 7.468,-3.474 6.06,-4.351 4.314,-4.351 1.757,-4.351 0,-2.795 0,0 M 4.219,2.204 C 3.373,2.204 2.896,1.811 2.586,1.041 h 3.149 c -0.3,0.787 -0.73,1.163 -1.516,1.163"
         style="fill:#1d1e1c;fill-opacity:1;fill-rule:nonzero;stroke:none"
         id="path540"
         inkscape:connector-curvature="0" />
    </g>
    <g
       style="opacity:1"
       id="g542"
       transform="matrix(0.67883918,0,0,-0.67883918,164.57159,282.24616)">
      <path
         d="M 0,0 C 1.652,0 2.66,-1.215 2.66,-2.771 V -8.487 H 0.144 v 4.88 c 0,0.921 -0.325,1.299 -1.147,1.299 -0.812,0 -1.355,-0.617 -1.355,-1.611 v -4.534 h -2.549 v 4.857 c 0,0.91 -0.301,1.288 -1.078,1.288 -0.819,0 -1.359,-0.584 -1.359,-1.592 v -4.553 h -2.527 v 8.302 H -7.39 V -1.23 c 0,0 0.926,1.23 2.328,1.23 1.099,0 1.934,-0.545 2.349,-1.315 C -2.046,-0.614 -1.516,0 0,0"
         style="fill:#1d1e1c;fill-opacity:1;fill-rule:nonzero;stroke:none"
         id="path544"
         inkscape:connector-curvature="0" />
    </g>
    <g
       style="opacity:1"
       id="g546"
       transform="matrix(0.67883918,0,0,-0.67883918,167.57062,282.34893)">
      <path
         d="m 0,0 h 2.507 v -4.759 c 0,-0.908 0.569,-1.438 1.419,-1.438 0.912,0 1.414,0.53 1.414,1.367 V 0 H 7.796 V -4.912 C 7.796,-7.224 6.31,-8.509 3.901,-8.509 1.529,-8.509 0,-7.122 0,-4.83 Z"
         style="fill:#1d1e1c;fill-opacity:1;fill-rule:nonzero;stroke:none"
         id="path548"
         inkscape:connector-curvature="0" />
    </g>
    <path
       d="m 174.06087,287.98417 h 1.70185 v -7.0287 h -1.70185 z"
       style="opacity:1;fill:#1d1e1c;fill-opacity:1;fill-rule:nonzero;stroke:none;stroke-width:0.67883915"
       id="path550"
       inkscape:connector-curvature="0" />
    <g
       style="opacity:1"
       id="g552"
       transform="matrix(0.67883918,0,0,-0.67883918,176.95443,280.95539)">
      <path
         d="M 0,0 V -2.053 H -0.829 V -4.349 H 0 v -6.005 h 2.535 v 5.987 h 1.336 v 2.314 H 2.535 V 0 Z"
         style="fill:#1d1e1c;fill-opacity:1;fill-rule:nonzero;stroke:none"
         id="path554"
         inkscape:connector-curvature="0" />
    </g>
    <g
       style="opacity:1"
       id="g556"
       transform="matrix(0.67883918,0,0,-0.67883918,180.05828,280.92031)">
      <path
         d="M 0,0 C 0,0.836 0.677,1.522 1.505,1.522 2.344,1.522 3.05,0.873 3.05,0.037 3.05,-0.824 2.344,-1.507 1.48,-1.507 0.661,-1.507 0,-0.841 0,0 M 2.757,-10.406 H 0.239 v 8.302 h 2.518 z"
         style="fill:#1d1e1c;fill-opacity:1;fill-rule:nonzero;stroke:none"
         id="path558"
         inkscape:connector-curvature="0" />
    </g>
    <g
       style="opacity:1"
       id="g560"
       transform="matrix(0.67883918,0,0,-0.67883918,189.82054,282.24616)">
      <path
         d="M 0,0 C 1.644,0 2.672,-1.215 2.672,-2.771 V -8.487 H 0.141 v 4.88 c 0,0.921 -0.328,1.299 -1.134,1.299 -0.82,0 -1.354,-0.617 -1.354,-1.611 v -4.534 h -2.565 v 4.857 c 0,0.91 -0.291,1.288 -1.07,1.288 -0.815,0 -1.353,-0.584 -1.353,-1.592 v -4.553 h -2.536 v 8.302 H -7.39 V -1.23 c 0,0 0.919,1.23 2.339,1.23 1.095,0 1.935,-0.545 2.327,-1.315 C -2.051,-0.614 -1.515,0 0,0"
         style="fill:#1d1e1c;fill-opacity:1;fill-rule:nonzero;stroke:none"
         id="path562"
         inkscape:connector-curvature="0" />
    </g>
    <g
       style="opacity:1"
       id="g564"
       transform="matrix(0.67883918,0,0,-0.67883918,192.54118,285.17168)">
      <path
         d="m 0,0 c 0,2.515 1.797,4.31 4.262,4.31 2.381,0 4.074,-1.576 4.074,-4.537 V -0.723 H 2.499 c 0.215,-0.989 0.992,-1.455 1.945,-1.455 0.821,0 1.359,0.584 1.787,1.148 0,0 1.505,-0.872 1.972,-1.148 C 7.465,-3.474 6.062,-4.351 4.311,-4.351 1.765,-4.351 0,-2.795 0,0 M 4.217,2.204 C 3.372,2.204 2.894,1.811 2.583,1.041 h 3.15 C 5.444,1.828 5.016,2.204 4.217,2.204"
         style="fill:#1d1e1c;fill-opacity:1;fill-rule:nonzero;stroke:none"
         id="path566"
         inkscape:connector-curvature="0" />
    </g>
    <g
       style="opacity:1"
       id="g568"
       transform="matrix(0.67883918,0,0,-0.67883918,204.87299,287.98444)">
      <path
         d="m 0,0 h -2.46 v 0.871 c -0.779,-0.769 -1.568,-1.078 -2.66,-1.078 -2.339,0 -3.774,1.986 -3.774,4.298 0,2.24 1.549,4.362 3.989,4.362 1.443,0 2.402,-0.937 2.402,-0.937 v 2.838 H 0 Z m -6.335,4.124 c 0,-1.145 0.769,-2.09 1.916,-2.09 1.311,0 2.048,0.909 2.048,2.057 0,1.161 -0.787,2.038 -1.963,2.038 -1.276,0 -2.001,-0.944 -2.001,-2.005"
         style="fill:#1d1e1c;fill-opacity:1;fill-rule:nonzero;stroke:none"
         id="path570"
         inkscape:connector-curvature="0" />
    </g>
    <g
       style="opacity:1"
       id="g572"
       transform="matrix(0.67883918,0,0,-0.67883918,205.90123,280.92031)">
      <path
         d="m 0,0 c 0,0.836 0.674,1.522 1.515,1.522 0.838,0 1.523,-0.649 1.523,-1.485 0,-0.861 -0.685,-1.544 -1.552,-1.544 C 0.665,-1.507 0,-0.841 0,0 M 2.764,-10.406 H 0.247 v 8.302 h 2.517 z"
         style="fill:#1d1e1c;fill-opacity:1;fill-rule:nonzero;stroke:none"
         id="path574"
         inkscape:connector-curvature="0" />
    </g>
    <g
       style="opacity:1"
       id="g576"
       transform="matrix(0.67883918,0,0,-0.67883918,208.6888,285.1955)">
      <path
         d="m 0,0 c 0,2.313 1.724,4.36 4.038,4.36 1.006,0 1.637,-0.338 2.394,-1.024 V 4.193 H 8.908 V -4.108 H 6.38 v 0.821 c 0,0 -0.895,-1.028 -2.479,-1.028 C 1.577,-4.315 0,-2.652 0,0 m 4.531,2.021 c -1.208,0 -1.969,-0.877 -1.969,-1.975 0,-1.143 0.726,-2.102 1.88,-2.102 1.127,0 2.058,0.841 2.058,2.038 0,1.215 -0.855,2.039 -1.969,2.039"
         style="fill:#1d1e1c;fill-opacity:1;fill-rule:nonzero;stroke:none"
         id="path578"
         inkscape:connector-curvature="0" />
    </g>
    <g
       style="opacity:1"
       id="g580"
       transform="matrix(0.67883918,0,0,-0.67883918,63.186209,268.65205)">
      <path
         d="M 0,0 V -10.074 H -6.02 V 12.975 H 0 V 3.174 l 6.741,9.801 H 13.9 L 5.654,2.081 15.471,-10.074 H 7.7 Z"
         style="fill:#1d1e1c;fill-opacity:1;fill-rule:nonzero;stroke:none"
         id="path582"
         inkscape:connector-curvature="0" />
    </g>
    <g
       style="opacity:1"
       id="g584"
       transform="matrix(0.67883918,0,0,-0.67883918,74.558122,269.24542)">
      <path
         d="m 0,0 c 0,5.601 4.003,9.633 9.449,9.633 5.325,0 9.092,-3.518 9.092,-10.11 0,-0.461 0.023,-0.684 0,-1.111 H 5.536 c 0.479,-2.2 2.229,-3.239 4.331,-3.239 1.838,0 3.044,1.279 4.007,2.542 0,0 3.339,-1.93 4.357,-2.542 C 16.607,-7.732 13.479,-9.661 9.601,-9.661 3.909,-9.661 0,-6.193 0,0 M 9.391,4.936 C 7.493,4.936 6.446,4.03 5.748,2.325 h 7.004 C 12.103,4.102 11.136,4.936 9.391,4.936"
         style="fill:#1d1e1c;fill-opacity:1;fill-rule:nonzero;stroke:none"
         id="path586"
         inkscape:connector-curvature="0" />
    </g>
    <g
       style="opacity:1"
       id="g588"
       transform="matrix(0.67883918,0,0,-0.67883918,95.394951,266.38153)">
      <path
         d="m 0,0 c -2.167,0 -3.495,-1.329 -3.495,-4.901 v -8.518 H -9.152 V 5.052 h 5.444 V 2.136 c 0.457,1.381 2.17,3.278 4.403,3.278 h 1.249 v -5.77 C 1.944,-0.356 1.257,0 0,0"
         style="fill:#1d1e1c;fill-opacity:1;fill-rule:nonzero;stroke:none"
         id="path590"
         inkscape:connector-curvature="0" />
    </g>
    <g
       style="opacity:1"
       id="g592"
       transform="matrix(0.67883918,0,0,-0.67883918,106.27756,275.51274)">
      <path
         d="m 0,0 v 17.583 h -4.757 v 5.462 H 11.016 V 17.583 H 6.259 V 0 Z"
         style="fill:#1d1e1c;fill-opacity:1;fill-rule:nonzero;stroke:none"
         id="path594"
         inkscape:connector-curvature="0" />
    </g>
    <g
       style="opacity:1"
       id="g596"
       transform="matrix(0.67883918,0,0,-0.67883918,119.13973,275.49088)">
      <path
         d="m 0,0 h -5.648 v 23.049 h 5.594 v -6.984 c 0,0 1.771,2.768 5.392,2.768 3.668,0 6.641,-2.648 6.641,-6.132 V 0 H 6.206 v 10.843 c 0,1.516 -0.427,2.97 -2.884,2.97 C 1.512,13.813 0,12.343 0,10.553 Z"
         style="fill:#1d1e1c;fill-opacity:1;fill-rule:nonzero;stroke:none"
         id="path598"
         inkscape:connector-curvature="0" />
    </g>
    <g
       style="opacity:1"
       id="g600"
       transform="matrix(0.67883918,0,0,-0.67883918,129.56365,259.76551)">
      <path
         d="m 0,0 c 0,1.879 1.499,3.397 3.372,3.397 1.86,0 3.393,-1.469 3.393,-3.327 0,-1.896 -1.533,-3.446 -3.455,-3.446 C 1.476,-3.376 0,-1.893 0,0 M 6.132,-23.165 H 0.525 v 18.471 h 5.607 z"
         style="fill:#1d1e1c;fill-opacity:1;fill-rule:nonzero;stroke:none"
         id="path602"
         inkscape:connector-curvature="0" />
    </g>
    <g
       style="opacity:1"
       id="g604"
       transform="matrix(0.67883918,0,0,-0.67883918,135.77265,269.27855)">
      <path
         d="m 0,0 c 0,5.53 4.419,9.682 10.109,9.682 5.592,0 9.959,-4.033 9.959,-9.596 0,-5.616 -4.061,-9.865 -10.076,-9.865 C 4.336,-9.779 0,-5.153 0,0 m 10.077,4.421 c -2.712,0 -4.485,-1.979 -4.485,-4.505 0,-2.474 1.894,-4.403 4.456,-4.403 2.765,0 4.448,1.773 4.448,4.657 0,2.392 -1.802,4.251 -4.419,4.251"
         style="fill:#1d1e1c;fill-opacity:1;fill-rule:nonzero;stroke:none"
         id="path606"
         inkscape:connector-curvature="0" />
    </g>
    <g
       style="opacity:1"
       id="g608"
       transform="matrix(0.67883918,0,0,-0.67883918,150.82312,266.78728)">
      <path
         d="m 0,0 c 0,3.587 2.976,6.012 7.066,6.012 2.646,0 4.916,-1.472 6.051,-4.064 L 8.876,0.087 c 0,0 -0.666,1.448 -2.287,1.448 -0.907,0 -1.479,-0.389 -1.479,-1.125 0,-2.067 8.526,-1.23 8.526,-7.547 0,-4.011 -3.496,-6.145 -7.407,-6.145 -3.106,0 -5.383,1.164 -6.836,3.861 l 4.315,2.166 c 0,0 0.914,-1.622 2.583,-1.622 0.894,0 1.986,0.429 1.986,1.281 C 8.277,-5.309 0,-6.503 0,0"
         style="fill:#1d1e1c;fill-opacity:1;fill-rule:nonzero;stroke:none"
         id="path610"
         inkscape:connector-curvature="0" />
    </g>
    <g
       style="opacity:1"
       id="g612"
       transform="matrix(0.67883918,0,0,-0.67883918,161.42463,266.78728)">
      <path
         d="m 0,0 c 0,3.587 2.97,6.012 7.063,6.012 2.648,0 4.907,-1.472 6.05,-4.064 L 8.881,0.087 c 0,0 -0.67,1.448 -2.289,1.448 -0.905,0 -1.471,-0.389 -1.471,-1.125 0,-2.067 8.509,-1.23 8.509,-7.547 0,-4.011 -3.487,-6.145 -7.399,-6.145 -3.106,0 -5.395,1.164 -6.842,3.861 l 4.317,2.166 c 0,0 0.92,-1.622 2.577,-1.622 0.904,0 1.987,0.429 1.987,1.281 C 8.27,-5.309 0,-6.503 0,0"
         style="fill:#1d1e1c;fill-opacity:1;fill-rule:nonzero;stroke:none"
         id="path614"
         inkscape:connector-curvature="0" />
    </g>
    <g
       style="opacity:1"
       id="g616"
       transform="matrix(0.67883918,0,0,-0.67883918,172.01757,269.27855)">
      <path
         d="m 0,0 c 0,5.139 3.823,9.682 8.977,9.682 2.253,0 3.674,-0.753 5.324,-2.257 v 1.894 h 5.532 v -18.47 h -5.616 v 1.809 c 0,0 -2.016,-2.27 -5.548,-2.27 C 3.532,-9.612 0,-5.925 0,0 m 10.086,4.507 c -2.68,0 -4.384,-1.981 -4.384,-4.421 0,-2.56 1.619,-4.659 4.204,-4.659 2.5,0 4.573,1.825 4.573,4.505 0,2.714 -1.923,4.575 -4.393,4.575"
         style="fill:#1d1e1c;fill-opacity:1;fill-rule:nonzero;stroke:none"
         id="path618"
         inkscape:connector-curvature="0" />
    </g>
    <g
       style="opacity:1"
       id="g620"
       transform="matrix(0.67883918,0,0,-0.67883918,192.04135,275.49088)">
      <path
         d="m 0,0 h -5.65 v 18.471 h 5.59 v -2.408 c 0,0 1.778,2.768 5.388,2.768 3.668,0 6.648,-2.646 6.648,-6.13 V 0 H 6.195 v 10.843 c 0,1.516 -0.416,2.97 -2.882,2.97 C 1.503,13.813 0,12.343 0,10.549 Z"
         style="fill:#1d1e1c;fill-opacity:1;fill-rule:nonzero;stroke:none"
         id="path622"
         inkscape:connector-curvature="0" />
    </g>
    <g
       style="opacity:1"
       id="g624"
       transform="matrix(0.67883918,0,0,-0.67883918,202.14704,269.24542)">
      <path
         d="m 0,0 c 0,5.601 4.011,9.631 9.447,9.631 5.324,0 9.083,-3.516 9.083,-10.108 0,-0.461 0.041,-0.683 0,-1.111 h -13 c 0.491,-2.2 2.237,-3.24 4.334,-3.24 1.844,0 3.04,1.28 4.012,2.543 0,0 3.331,-1.932 4.354,-2.543 C 16.61,-7.732 13.486,-9.664 9.588,-9.664 3.917,-9.664 0,-6.193 0,0 M 9.391,4.936 C 7.49,4.936 6.443,4.031 5.743,2.324 h 7.025 C 12.103,4.099 11.136,4.936 9.391,4.936"
         style="fill:#1d1e1c;fill-opacity:1;fill-rule:nonzero;stroke:none"
         id="path626"
         inkscape:connector-curvature="0" />
    </g>
    <path
       d="m 76.690897,261.39613 h 3.291692 v -3.27743 h -3.291692 z"
       style="opacity:1;fill:#1d1e1c;fill-opacity:1;fill-rule:nonzero;stroke:none;stroke-width:0.67883915"
       id="path628"
       inkscape:connector-curvature="0" />
    <path
       d="m 81.745535,261.39613 h 3.293726 v -3.27743 h -3.293726 z"
       style="opacity:1;fill:#1d1e1c;fill-opacity:1;fill-rule:nonzero;stroke:none;stroke-width:0.67883915"
       id="path630"
       inkscape:connector-curvature="0" />
  </g>
</svg>
