<svg xmlns="http://www.w3.org/2000/svg" xmlns:xlink="http://www.w3.org/1999/xlink" version="1.1" x="0px" y="0px" viewBox="0 0 64 80" enable-background="new 0 0 64 64" xml:space="preserve"><g><path d="M18,15.426v33.148c0,2.206,1.794,4,4,4s4-1.794,4-4V15.426c0-2.206-1.794-4-4-4S18,13.22,18,15.426z M24,15.426v33.148   c0,1.1-0.9,2-2,2s-2-0.9-2-2V15.426c0-1.1,0.9-2,2-2S24,14.326,24,15.426z"/><path d="M38,15.426v33.148c0,2.206,1.794,4,4,4s4-1.794,4-4V15.426c0-2.206-1.794-4-4-4S38,13.22,38,15.426z M40,15.426   c0-1.1,0.9-2,2-2s2,0.9,2,2v33.148c0,1.1-0.9,2-2,2s-2-0.9-2-2V15.426z"/></g><text x="0" y="79" fill="#000000" font-size="5px" font-weight="bold" font-family="'Helvetica Neue', Helvetica, Arial-Unicode, Arial, Sans-serif">Created by kumakamu</text><text x="0" y="84" fill="#000000" font-size="5px" font-weight="bold" font-family="'Helvetica Neue', Helvetica, Arial-Unicode, Arial, Sans-serif">from the Noun Project</text></svg>