<?xml version="1.0" encoding="UTF-8" standalone="no"?>
<svg
   version="1.1"
   x="0px"
   y="0px"
   viewBox="0 0 24 30"
   enable-background="new 0 0 24 24"
   xml:space="preserve"
   id="svg24"
   sodipodi:docname="noun-loudspeaker-1310424.svg"
   inkscape:version="1.1.1 (3bf5ae0d25, 2021-09-20)"
   xmlns:inkscape="http://www.inkscape.org/namespaces/inkscape"
   xmlns:sodipodi="http://sodipodi.sourceforge.net/DTD/sodipodi-0.dtd"
   xmlns="http://www.w3.org/2000/svg"
   xmlns:svg="http://www.w3.org/2000/svg"><defs
     id="defs28" /><sodipodi:namedview
     id="namedview26"
     pagecolor="#ffffff"
     bordercolor="#666666"
     borderopacity="1.0"
     inkscape:pageshadow="2"
     inkscape:pageopacity="0.0"
     inkscape:pagecheckerboard="0"
     showgrid="false"
     inkscape:zoom="1.2300712"
     inkscape:cx="-246.73369"
     inkscape:cy="-108.93679"
     inkscape:window-width="1600"
     inkscape:window-height="871"
     inkscape:window-x="0"
     inkscape:window-y="0"
     inkscape:window-maximized="1"
     inkscape:current-layer="svg24" /><g
     id="g18"
     style="fill:#ba53d9;fill-opacity:1"
     transform="matrix(1,0,0,1.0000179,0,-2.6234171e-6)"><g
       id="g8"
       style="fill:#ba53d9;fill-opacity:1"><path
         d="m 3.83,16.217 c -0.276,0 -0.5,-0.224 -0.5,-0.5 V 8.284 c 0,-0.276 0.224,-0.5 0.5,-0.5 0.276,0 0.5,0.224 0.5,0.5 v 7.434 c 0,0.276 -0.223,0.499 -0.5,0.499 z"
         id="path2"
         style="fill:#ba53d9;fill-opacity:1" /><path
         d="m 2.569,15.831 c -0.06,0 -0.119,-0.01 -0.178,-0.033 C 0.776,15.184 0.778,13.65 0.78,12.166 V 12.012 C 0.78,10.4 0.779,8.803 2.461,8.199 2.724,8.104 3.008,8.241 3.101,8.5 3.194,8.76 3.059,9.046 2.799,9.14 1.825,9.49 1.78,10.342 1.78,11.944 v 0.223 c -0.002,1.53 0.04,2.344 0.967,2.697 0.258,0.098 0.388,0.387 0.29,0.645 -0.076,0.199 -0.266,0.322 -0.468,0.322 z"
         id="path4"
         style="fill:#ba53d9;fill-opacity:1" /><path
         d="m 12.908,23.854 c -0.508,0 -1.16,-0.178 -1.941,-0.758 C 9.071,21.689 4.369,16.971 3.58,16.176 3.346,16.123 2.883,16.004 2.374,15.794 2.118,15.689 1.997,15.396 2.103,15.141 c 0.104,-0.255 0.398,-0.375 0.652,-0.272 0.613,0.253 1.16,0.356 1.166,0.357 0.1,0.019 0.193,0.067 0.265,0.14 0.054,0.055 5.409,5.467 7.377,6.928 0.456,0.338 1.116,0.702 1.681,0.506 0.479,-0.169 0.727,-0.675 0.797,-0.948 C 14.594,19.734 14.594,4.268 14.042,2.15 13.971,1.877 13.723,1.371 13.243,1.202 12.68,1.004 12.019,1.369 11.563,1.708 9.595,3.168 4.24,8.581 4.186,8.636 4.115,8.709 4.022,8.758 3.921,8.776 3.916,8.776 3.402,8.873 2.813,9.109 2.556,9.21 2.265,9.087 2.163,8.83 2.061,8.574 2.185,8.283 2.441,8.18 2.924,7.987 3.357,7.876 3.58,7.826 4.369,7.031 9.07,2.312 10.967,0.905 12.15,0.027 13.038,0.068 13.575,0.259 c 0.818,0.289 1.283,1.063 1.434,1.639 0.615,2.36 0.615,17.846 -0.001,20.206 -0.149,0.576 -0.614,1.351 -1.433,1.639 -0.182,0.064 -0.405,0.111 -0.667,0.111 z"
         id="path6"
         style="fill:#ba53d9;fill-opacity:1" /></g><g
       id="g16"
       style="fill:#ba53d9;fill-opacity:1"><path
         d="m 16.504,16.1 c -0.128,0 -0.256,-0.049 -0.354,-0.146 -0.195,-0.195 -0.195,-0.512 0,-0.707 0.867,-0.867 1.345,-2.02 1.345,-3.246 0,-1.227 -0.478,-2.379 -1.345,-3.246 -0.195,-0.195 -0.195,-0.512 0,-0.707 0.195,-0.195 0.512,-0.195 0.707,0 1.056,1.056 1.638,2.459 1.638,3.953 0,1.493 -0.582,2.897 -1.638,3.953 -0.097,0.097 -0.225,0.146 -0.353,0.146 z"
         id="path10"
         style="fill:#ba53d9;fill-opacity:1" /><path
         d="m 17.863,18.363 c -0.128,0 -0.256,-0.049 -0.354,-0.146 -0.195,-0.195 -0.195,-0.512 0,-0.707 1.472,-1.472 2.282,-3.428 2.282,-5.509 0,-2.081 -0.811,-4.037 -2.282,-5.509 -0.195,-0.195 -0.195,-0.512 0,-0.707 0.195,-0.195 0.512,-0.195 0.707,0 1.661,1.66 2.575,3.868 2.575,6.216 0,2.348 -0.914,4.556 -2.575,6.216 -0.097,0.097 -0.225,0.146 -0.353,0.146 z"
         id="path12"
         style="fill:#ba53d9;fill-opacity:1" /><path
         d="m 19.087,21.285 c -0.128,0 -0.256,-0.049 -0.354,-0.146 -0.195,-0.195 -0.195,-0.512 0,-0.707 4.648,-4.649 4.648,-12.213 0,-16.862 -0.195,-0.195 -0.195,-0.512 0,-0.707 0.195,-0.195 0.512,-0.195 0.707,0 5.039,5.039 5.039,13.238 0,18.276 -0.097,0.097 -0.225,0.146 -0.353,0.146 z"
         id="path14"
         style="fill:#ba53d9;fill-opacity:1" /></g></g><text
     x="0"
     y="39"
     fill="#000000"
     font-size="5px"
     font-weight="bold"
     font-family="'Helvetica Neue', Helvetica, Arial-Unicode, Arial, Sans-serif"
     id="text20" /><text
     x="0"
     y="44"
     fill="#000000"
     font-size="5px"
     font-weight="bold"
     font-family="'Helvetica Neue', Helvetica, Arial-Unicode, Arial, Sans-serif"
     id="text22" /></svg>
