<svg xmlns="http://www.w3.org/2000/svg" xmlns:xlink="http://www.w3.org/1999/xlink" version="1.1" x="0px" y="0px" viewBox="0 0 64 80" enable-background="new 0 0 64 64" xml:space="preserve"><g><path d="M23.915,52.016c0.649,0,1.317-0.222,1.933-0.642l24.325-16.595c0.988-0.674,1.555-1.687,1.555-2.779   s-0.567-2.105-1.555-2.779L25.848,12.625c-0.616-0.42-1.284-0.642-1.933-0.642h0c-1.414,0-2.846,1.088-2.846,3.167v33.698   C21.068,50.928,22.5,52.016,23.915,52.016z M23.068,15.151c0-0.746,0.342-1.167,0.846-1.167c0.239,0,0.514,0.095,0.806,0.294   l24.325,16.595c0.909,0.62,0.909,1.634,0,2.254L24.721,49.722c-0.292,0.199-0.567,0.294-0.806,0.294   c-0.504,0-0.846-0.421-0.846-1.167V15.151z"/></g><text x="0" y="79" fill="#000000" font-size="5px" font-weight="bold" font-family="'Helvetica Neue', Helvetica, Arial-Unicode, Arial, Sans-serif">Created by kumakamu</text><text x="0" y="84" fill="#000000" font-size="5px" font-weight="bold" font-family="'Helvetica Neue', Helvetica, Arial-Unicode, Arial, Sans-serif">from the Noun Project</text></svg>